<svg xmlns="http://www.w3.org/2000/svg" viewBox="0 0 1200 630" role="img" aria-label="FluxPay">
  <defs>
    <linearGradient id="bg" x1="0" x2="1" y1="0" y2="1">
      <stop stop-color="#F4F7FB"/>
      <stop offset="1" stop-color="#E9E3FF"/>
    </linearGradient>
    <linearGradient id="accent" x1="0" x2="1">
      <stop stop-color="#22D3EE"/>
      <stop offset="1" stop-color="#10B981"/>
    </linearGradient>
  </defs>
  <rect width="1200" height="630" fill="url(#bg)"/>
  <circle cx="1030" cy="120" r="230" fill="#22D3EE" opacity=".18"/>
  <circle cx="140" cy="560" r="250" fill="#2F1C6A" opacity=".12"/>
  <rect x="720" y="108" width="360" height="338" rx="28" fill="#fff" stroke="#DBE4EF"/>
  <rect x="752" y="144" width="150" height="18" rx="9" fill="#2F1C6A"/>
  <rect x="752" y="194" width="286" height="72" rx="18" fill="#F4F7FB"/>
  <rect x="752" y="288" width="286" height="112" rx="18" fill="#EFFDFA"/>
  <rect x="780" y="346" width="34" height="54" rx="10" fill="#22D3EE"/>
  <rect x="828" y="322" width="34" height="78" rx="10" fill="#10B981"/>
  <rect x="876" y="302" width="34" height="98" rx="10" fill="#0E7490"/>
  <rect x="924" y="334" width="34" height="66" rx="10" fill="#22D3EE"/>
  <rect x="752" y="420" width="190" height="22" rx="11" fill="#D1FAE5"/>
  <g transform="translate(110 116)">
    <rect width="78" height="78" rx="20" fill="#2F1C6A"/>
    <path d="M23 28h32a4 4 0 0 1 4 4v14a4 4 0 0 1-4 4H23a4 4 0 0 1-4-4V32a4 4 0 0 1 4-4Z" fill="none" stroke="#fff" stroke-width="5"/>
    <path d="M27 38h18M46 46l8-8-8-8" fill="none" stroke="#22D3EE" stroke-width="5" stroke-linecap="round" stroke-linejoin="round"/>
  </g>
  <text x="110" y="250" fill="#2F1C6A" font-family="Inter, Arial, sans-serif" font-size="76" font-weight="800">FluxPay</text>
  <text x="110" y="320" fill="#1E293B" font-family="Inter, Arial, sans-serif" font-size="36" font-weight="800">Cobranças recorrentes, links</text>
  <text x="110" y="368" fill="#1E293B" font-family="Inter, Arial, sans-serif" font-size="36" font-weight="800">de pagamento e assinaturas</text>
  <rect x="110" y="432" width="286" height="64" rx="16" fill="url(#accent)"/>
  <text x="148" y="473" fill="#052D23" font-family="Inter, Arial, sans-serif" font-size="23" font-weight="800">Começar agora</text>
</svg>
