<svg xmlns="http://www.w3.org/2000/svg" viewBox="0 0 1200 630" role="img" aria-label="FluxPay">
  <defs>
    <linearGradient id="bg" x1="0" x2="1" y1="0" y2="1">
      <stop offset="0" stop-color="#061826"/>
      <stop offset="0.58" stop-color="#083047"/>
      <stop offset="1" stop-color="#0f172a"/>
    </linearGradient>
    <linearGradient id="accent" x1="0" x2="1">
      <stop offset="0" stop-color="#22d3ee"/>
      <stop offset="1" stop-color="#10b981"/>
    </linearGradient>
  </defs>
  <rect width="1200" height="630" fill="url(#bg)"/>
  <g opacity="0.22" stroke="#22d3ee">
    <path d="M0 120h1200M0 240h1200M0 360h1200M0 480h1200"/>
    <path d="M160 0v630M320 0v630M480 0v630M640 0v630M800 0v630M960 0v630"/>
  </g>
  <rect x="720" y="96" width="360" height="348" rx="16" fill="#ffffff" opacity="0.96"/>
  <rect x="752" y="132" width="120" height="18" rx="9" fill="#0e7490"/>
  <rect x="752" y="178" width="286" height="72" rx="10" fill="#f1f5f9"/>
  <rect x="752" y="272" width="286" height="112" rx="10" fill="#e6fffb"/>
  <rect x="780" y="330" width="34" height="54" rx="8" fill="#22d3ee"/>
  <rect x="828" y="306" width="34" height="78" rx="8" fill="#10b981"/>
  <rect x="876" y="286" width="34" height="98" rx="8" fill="#0e7490"/>
  <rect x="924" y="318" width="34" height="66" rx="8" fill="#22d3ee"/>
  <rect x="752" y="408" width="160" height="20" rx="10" fill="#d1fae5"/>
  <g transform="translate(112 112)">
    <rect width="74" height="74" rx="18" fill="url(#accent)"/>
    <path d="M22 25h30a4 4 0 0 1 4 4v16a4 4 0 0 1-4 4H22a4 4 0 0 1-4-4V29a4 4 0 0 1 4-4Z" fill="none" stroke="#042018" stroke-width="4"/>
    <path d="M25 35h17M43 43l7-7-7-7" fill="none" stroke="#042018" stroke-width="4" stroke-linecap="round" stroke-linejoin="round"/>
  </g>
  <text x="112" y="250" fill="#ffffff" font-family="Inter, Arial, sans-serif" font-size="76" font-weight="800">FluxPay</text>
  <text x="112" y="318" fill="#a5f3fc" font-family="Inter, Arial, sans-serif" font-size="35" font-weight="700">Cobranças recorrentes, links de pagamento</text>
  <text x="112" y="366" fill="#e2f2fa" font-family="Inter, Arial, sans-serif" font-size="35" font-weight="700">e controle financeiro em um so painel.</text>
  <rect x="112" y="430" width="280" height="58" rx="10" fill="url(#accent)"/>
  <text x="146" y="468" fill="#042018" font-family="Inter, Arial, sans-serif" font-size="22" font-weight="800">Comecar agora</text>
</svg>
