<svg xmlns="http://www.w3.org/2000/svg" fill="none" viewBox="-0.875 -0.875 350 350" id="Leave-A-Review--Streamline-Bangalore.svg" height="350" width="350"><desc>Leave A Review Streamline Illustration: https://streamlinehq.com</desc><g id="leave-a-review--e-commerce-leave-a-review"><g id="elements"><g id="group"><path id="vector" stroke="#120071" stroke-linecap="round" stroke-linejoin="round" d="M300.2298075 178.74801875h19.094547499999997" stroke-width="1.75"></path><path id="vector_2" stroke="#120071" stroke-linecap="round" stroke-linejoin="round" d="M309.77708125 188.29529250000002V169.20074499999998" stroke-width="1.75"></path></g><g id="group_2"><path id="vector_3" stroke="#120071" stroke-linecap="round" stroke-linejoin="round" d="m38.446799999999996 273.65659125 13.501652499999999 13.501652499999999" stroke-width="1.75"></path><path id="vector_4" stroke="#120071" stroke-linecap="round" stroke-linejoin="round" d="m38.446799999999996 287.15824375 13.501652499999999 -13.501652499999999" stroke-width="1.75"></path></g><g id="group_3"><path id="vector_5" stroke="#120071" stroke-linecap="round" stroke-linejoin="round" d="m52.857385 82.77031874999999 6.88664375 6.88664375" stroke-width="1.75"></path><path id="vector_6" stroke="#120071" stroke-linecap="round" stroke-linejoin="round" d="m52.857385 89.6569625 6.88664375 -6.88664375" stroke-width="1.75"></path></g><path id="vector_7" stroke="#120071" stroke-linecap="round" stroke-linejoin="round" d="m237.19829875000002 26.4356575 5.9028375 9.73707 6.94236375 -14.546402499999997" stroke-width="1.75"></path><g id="group_4"><path id="vector_8" stroke="#120071" stroke-linecap="round" stroke-linejoin="round" d="M329.12933375 139.724865H339.54375" stroke-width="1.75"></path><path id="vector_9" stroke="#120071" stroke-linecap="round" stroke-linejoin="round" d="M334.33567124999996 144.93294375v-10.41441625" stroke-width="1.75"></path></g></g><g id="chat box"><path id="vector_10" stroke="#120071" stroke-linecap="round" stroke-linejoin="round" d="M72.49694375 139.724865H8.70625v87.07468874999999l8.92390625 -10.170641250000001h54.8667875V139.724865Z" stroke-width="1.75"></path><path id="vector_11" stroke="#120071" stroke-linecap="round" stroke-linejoin="round" d="M28.1838725 178.74801875h44.31307125" stroke-width="1.75"></path><path id="vector_12" stroke="#120071" stroke-linecap="round" stroke-linejoin="round" d="M28.1838725 189.75620125h44.31307125" stroke-width="1.75"></path><path id="vector_13" stroke="#120071" stroke-linecap="round" stroke-linejoin="round" d="M28.142082499999997 167.2993h44.35486125" stroke-width="1.75"></path></g><g id="phone"><path id="vector_14" stroke="#120071" stroke-linecap="round" stroke-linejoin="round" d="M265.67818375 287.72589125c5.4849375 -1.0186312499999999 10.442276249999999 -3.9265187499999996 14.00835625 -8.21695875 3.56608 -4.29044 5.5197625 -9.69353875 5.5197625 -15.27250375v-196.58712500000001c0 -6.3346675 -2.51610625 -12.409714625 -6.9963425 -16.88908025 -4.478495 -4.4791915 -10.553716249999999 -6.995646 -16.88838375 -6.995646H105.345625c-3.136861875 -0.0005223749999999999 -6.243077749999999 0.616924875 -9.141388375 1.8171685000000002 -2.8981365 1.2000695000000001 -5.531603 2.959254375 -7.7499555 5.177258625 -2.218178375 2.21800425 -3.977885625 4.8511225 -5.1784775000000005 7.749259 -1.20041775 2.8979623749999996 -1.818387375 6.00417825 -1.818387375 9.141040125v196.58712500000001c0 3.1377325 0.617969625 6.24238125 1.818387375 9.1415625 1.200591875 2.89744 2.9602991249999997 5.53021 5.1784775000000005 7.7485625 2.2183525 2.2183525 4.851819 3.9770149999999997 7.7499555 5.176736249999999 2.898310625 1.2014624999999999 6.0045265 1.817865 9.141388375 1.817865h51.62283875" stroke-width="1.75"></path><path id="vector_15" fill="#6153bd" d="M81.45741625 264.23642875v-196.58712500000001c0 -3.136861875 0.617969625 -6.243077749999999 1.818387375 -9.141040125 1.200591875 -2.8981365 2.9602991249999997 -5.53125475 5.1784775000000005 -7.749259 2.2183525 -2.21800425 4.851819 -3.9771891249999998 7.7499555 -5.177258625 2.898310625 -1.200243625 6.0045265 -1.817690875 9.141388375 -1.8171685000000002h-8.963954999999999c-6.3346675 0 -12.409888749999999 2.5164545 -16.88908025 6.995646 -4.4791915 4.479365625 -6.995646 10.55441275 -6.995646 16.88908025v196.58712500000001c0 3.13599125 0.6177954999999999 6.24238125 1.818039125 9.139821249999999 1.20041775 2.89744 2.95977675 5.53195125 5.177606875 7.7485625 2.21800425 2.2183525 4.850948375 3.97875625 7.748736624999999 5.1784775000000005 2.8977882499999996 1.1997212499999999 6.00383 1.817865 9.140343625 1.817865H105.345625c-3.136861875 0 -6.243077749999999 -0.6164025 -9.141388375 -1.817865 -2.8981365 -1.1997212499999999 -5.531603 -2.95838375 -7.7499555 -5.176736249999999 -2.218178375 -2.2183525 -3.977885625 -4.8511225 -5.1784775000000005 -7.7485625 -1.20041775 -2.89918125 -1.818387375 -6.00383 -1.818387375 -9.1415625Z" stroke-width="1.75"></path><path id="vector_16" stroke="#120071" stroke-linecap="round" stroke-linejoin="round" d="M81.45741625 264.23642875v-196.58712500000001c0 -3.136861875 0.617969625 -6.243077749999999 1.818387375 -9.141040125 1.200591875 -2.8981365 2.9602991249999997 -5.53125475 5.1784775000000005 -7.749259 2.2183525 -2.21800425 4.851819 -3.9771891249999998 7.7499555 -5.177258625 2.898310625 -1.200243625 6.0045265 -1.817690875 9.141388375 -1.8171685000000002h-8.963954999999999c-6.3346675 0 -12.409888749999999 2.5164545 -16.88908025 6.995646 -4.4791915 4.479365625 -6.995646 10.55441275 -6.995646 16.88908025v196.58712500000001c0 3.13599125 0.6177954999999999 6.24238125 1.818039125 9.139821249999999 1.20041775 2.89744 2.95977675 5.53195125 5.177606875 7.7485625 2.21800425 2.2183525 4.850948375 3.97875625 7.748736624999999 5.1784775000000005 2.8977882499999996 1.1997212499999999 6.00383 1.817865 9.140343625 1.817865H105.345625c-3.136861875 0 -6.243077749999999 -0.6164025 -9.141388375 -1.817865 -2.8981365 -1.1997212499999999 -5.531603 -2.95838375 -7.7499555 -5.176736249999999 -2.218178375 -2.2183525 -3.977885625 -4.8511225 -5.1784775000000005 -7.7485625 -1.20041775 -2.89918125 -1.818387375 -6.00383 -1.818387375 -9.1415625Z" stroke-width="1.75"></path><path id="vector_17" stroke="#120071" stroke-linecap="round" stroke-linejoin="round" d="M285.2063025 73.30488374999999H81.45741625v101.47830875000001h203.74888625V73.30488374999999Z" stroke-width="1.75"></path><path id="vector_18" fill="#fecfc4" d="M81.45741625 174.78493375V258.575625h75.5110475v-41.406925h108.70972v41.406925h19.52811875v-83.79069125000001H81.45741625Zm36.888381249999995 58.551272499999996c-4.44262525 0 -8.785476874999999 -1.31812625 -12.479364625 -3.7854775 -3.69388775 -2.4690925 -6.5728705 -5.975969999999999 -8.273026999999999 -10.080096249999999 -1.6999823749999998 -4.1058675000000004 -2.14487175 -8.62092875 -1.2780775 -12.979277499999998 0.866620125 -4.3566075 3.005919875 -8.35974125 6.147309 -11.50095625 3.141389125 -3.141215 7.143826374999999 -5.27947 11.50095625 -6.1466125 4.357304 -0.8671424999999999 8.873584124999999 -0.4213825 12.978058625 1.2780775 4.1044745 1.69946 7.612570875 4.5794875 10.080618625 8.27267875 2.468221875 3.6949324999999997 3.7856516250000003 8.037609999999999 3.7856516250000003 12.47953875 0 5.956816249999999 -2.366532875 11.669857499999999 -6.5789648750000005 15.883682499999999 -4.212432 4.21208375 -9.9258215 6.5784424999999995 -15.883160125 6.5784424999999995Zm47.410755 -29.033602499999997c-1.5697368749999998 0 -3.104126375 -0.46491375 -4.409367375 -1.33728 -1.305241 -0.87236625 -2.32247925 -2.1121362500000003 -2.9232105 -3.5625974999999994 -0.6005571249999999 -1.4504612499999998 -0.7577919999999999 -3.04544625 -0.4515061249999999 -4.58471125 0.30611175 -1.5392649999999999 1.0621625 -2.9549012500000003 2.17203525 -4.0640775 1.1098727499999999 -1.10917625 2.524116 -1.8666200000000002 4.06372925 -2.1713387500000003 1.539439125 -0.30645999999999995 3.13529475 -0.14974749999999998 4.585581875 0.45098375 1.450113 0.6007312499999999 2.689708875 1.61762125 3.561726875 2.92355875 0.872192125 1.30419625 1.3376282499999999 2.8399787499999998 1.3376282499999999 4.408845 0 2.10517125 -0.83614825 4.123279999999999 -2.32456875 5.61204875s-3.5072257500000004 2.32456875 -5.61204875 2.32456875Zm20.63033 0c-1.56886625 0 -3.10464875 -0.46491375 -4.408845 -1.33728 -1.3059375 -0.87236625 -2.3228275000000003 -2.1121362500000003 -2.92355875 -3.5625974999999994 -0.6007312499999999 -1.4504612499999998 -0.75744375 -3.04544625 -0.45098375 -4.58471125 0.30471875 -1.5392649999999999 1.0621625 -2.9549012500000003 2.1713387500000003 -4.0640775 1.10917625 -1.10917625 2.5248125 -1.8666200000000002 4.0640775 -2.1713387500000003 1.5392649999999999 -0.30645999999999995 3.13425 -0.14974749999999998 4.58471125 0.45098375s2.6902312499999996 1.61762125 3.5625974999999994 2.92355875c0.87236625 1.30419625 1.33728 2.8399787499999998 1.33728 4.408845 0 1.04300875 -0.2054675 2.07382875 -0.60421375 3.03674 -0.39874625 0.9629112500000001 -0.9820649999999999 1.83876 -1.7203549999999999 2.57530875 -0.73654875 0.73829 -1.6123975000000002 1.32160875 -2.57530875 1.7203549999999999 -0.9629112500000001 0.39874625 -1.99373125 0.60421375 -3.03674 0.60421375Zm20.52759625 -0.08358c-1.56886625 0 -3.10464875 -0.46491375 -4.408845 -1.33728 -1.3059375 -0.87236625 -2.3228275000000003 -2.1121362500000003 -2.92355875 -3.5625974999999994 -0.6007312499999999 -1.4504612499999998 -0.75744375 -3.04544625 -0.45098375 -4.58471125 0.30471875 -1.5392649999999999 1.0621625 -2.9549012500000003 2.1713387500000003 -4.0640775 1.10917625 -1.10917625 2.5248125 -1.8666200000000002 4.0640775 -2.1713387500000003 1.5392649999999999 -0.30645999999999995 3.13425 -0.14974749999999998 4.58471125 0.45098375s2.6902312499999996 1.61762125 3.5625974999999994 2.92355875c0.87236625 1.30419625 1.33728 2.8399787499999998 1.33728 4.408845 0 2.10517125 -0.8358 4.123279999999999 -2.32456875 5.61204875s-3.5068774999999994 2.32456875 -5.61204875 2.32456875Zm20.720875 0.08358c-1.56886625 0 -3.10464875 -0.46491375 -4.408845 -1.33728 -1.3059375 -0.87236625 -2.3228275000000003 -2.1121362500000003 -2.92355875 -3.5625974999999994 -0.6007312499999999 -1.4504612499999998 -0.75744375 -3.04544625 -0.45098375 -4.58471125 0.30471875 -1.5392649999999999 1.0621625 -2.9549012500000003 2.1713387500000003 -4.0640775 1.10917625 -1.10917625 2.5248125 -1.8666200000000002 4.0640775 -2.1713387500000003 1.5392649999999999 -0.30645999999999995 3.13425 -0.14974749999999998 4.58471125 0.45098375s2.6902312499999996 1.61762125 3.5625974999999994 2.92355875c0.87236625 1.30419625 1.33728 2.8399787499999998 1.33728 4.408845 0 1.04300875 -0.2054675 2.07557 -0.60421375 3.0384812500000002 -0.39874625 0.9646525 -0.9838062499999999 1.83876 -1.7220962499999999 2.57705 -0.73829 0.73654875 -1.61413875 1.32160875 -2.57705 1.71861375 -0.9646525 0.39874625 -1.99721375 0.60421375 -3.0402225 0.6024725h0.006965Zm21.199718750000002 -0.08358c-1.56886625 0 -3.10464875 -0.46491375 -4.408845 -1.33728 -1.3059375 -0.87236625 -2.3228275000000003 -2.1121362500000003 -2.92355875 -3.5625974999999994 -0.6007312499999999 -1.4504612499999998 -0.75744375 -3.04544625 -0.45098375 -4.58471125 0.30471875 -1.5392649999999999 1.0621625 -2.9549012500000003 2.1713387500000003 -4.0640775 1.10917625 -1.10917625 2.5248125 -1.8666200000000002 4.0640775 -2.1713387500000003 1.5392649999999999 -0.30645999999999995 3.13425 -0.14974749999999998 4.58471125 0.45098375s2.6902312499999996 1.61762125 3.5625974999999994 2.92355875c0.87236625 1.30419625 1.33728 2.8399787499999998 1.33728 4.408845 0 1.04300875 -0.2054675 2.07557 -0.6059549999999999 3.0402225 -0.39874625 0.9629112500000001 -0.9838062499999999 1.83876 -1.7220962499999999 2.57530875 -0.73829 0.73654875 -1.61413875 1.32160875 -2.57879125 1.7203549999999999 -0.9646525 0.397005 -1.99721375 0.6024725 -3.0402225 0.6007312499999999h0.0104475Z" stroke-width="1.75"></path><path id="vector_19" stroke="#120071" stroke-linecap="round" stroke-linejoin="round" d="M265.67818375 258.5791075h19.52811875v-83.79417375H81.45741625v83.79417375h75.5110475" stroke-width="1.75"></path><path id="vector_20" stroke="#120071" stroke-linecap="round" stroke-linejoin="round" d="M164.55334875 58.53560124999999h36.2563075" stroke-width="1.75"></path><path id="vector_21" stroke="#120071" stroke-linecap="round" stroke-linejoin="round" d="M118.34579749999999 131.130055c12.40362025 0 22.4586425 -10.05502225 22.4586425 -22.4586425 0 -12.40362025 -10.05502225 -22.4586425 -22.4586425 -22.4586425 -12.40362025 0 -22.4586425 10.05502225 -22.4586425 22.4586425 0 12.40362025 10.05502225 22.4586425 22.4586425 22.4586425Z" stroke-width="1.75"></path><path id="vector_22" fill="#6153bd" d="M97.1373725 116.0055575c1.49643025 4.342503375 4.289569374999999 8.121015875 8.00243675 10.825003 3.7128673749999996 2.703987125 8.16611425 4.203203375 12.758312875 4.294793125 4.592198625 0.091763875 9.101861999999999 -1.22827775 12.919552625 -3.781995 3.81786475 -2.5535431249999996 6.759706625 -6.217481375 8.4283465 -10.496777374999999 -12.462126249999999 -5.765278749999999 -29.280859999999997 -5.73741875 -42.10864875 -0.84102375Z" stroke-width="1.75"></path><path id="vector_23" stroke="#120071" stroke-linecap="round" stroke-linejoin="round" d="M97.1373725 116.0055575c1.49643025 4.342503375 4.289569374999999 8.121015875 8.00243675 10.825003 3.7128673749999996 2.703987125 8.16611425 4.203203375 12.758312875 4.294793125 4.592198625 0.091763875 9.101861999999999 -1.22827775 12.919552625 -3.781995 3.81786475 -2.5535431249999996 6.759706625 -6.217481375 8.4283465 -10.496777374999999 -12.462126249999999 -5.765278749999999 -29.280859999999997 -5.73741875 -42.10864875 -0.84102375Z" stroke-width="1.75"></path><path id="vector_24" fill="#6153bd" d="M118.19082624999999 107.727655c2.689708875 0 4.87027625 -2.180567375 4.87027625 -4.87027625 0 -2.689708875 -2.180567375 -4.87027625 -4.87027625 -4.87027625 -2.689708875 0 -4.87027625 2.180567375 -4.87027625 4.87027625 0 2.689708875 2.180567375 4.87027625 4.87027625 4.87027625Z" stroke-width="1.75"></path><path id="vector_25" stroke="#120071" stroke-linecap="round" stroke-linejoin="round" d="M118.19082624999999 107.727655c2.689708875 0 4.87027625 -2.180567375 4.87027625 -4.87027625 0 -2.689708875 -2.180567375 -4.87027625 -4.87027625 -4.87027625 -2.689708875 0 -4.87027625 2.180567375 -4.87027625 4.87027625 0 2.689708875 2.180567375 4.87027625 4.87027625 4.87027625Z" stroke-width="1.75"></path><path id="vector_26" fill="#6153bd" d="M165.7565525 102.08774625c4.383248625 0 7.9366175 -3.5533688750000003 7.9366175 -7.9366175 0 -4.383248625 -3.5533688750000003 -7.9366175 -7.9366175 -7.9366175 -4.383248625 0 -7.9366175 3.5533688750000003 -7.9366175 7.9366175 0 4.383248625 3.5533688750000003 7.9366175 7.9366175 7.9366175Z" stroke-width="1.75"></path><path id="vector_27" stroke="#120071" stroke-linecap="round" stroke-linejoin="round" d="M165.7565525 102.08774625c4.383248625 0 7.9366175 -3.5533688750000003 7.9366175 -7.9366175 0 -4.383248625 -3.5533688750000003 -7.9366175 -7.9366175 -7.9366175 -4.383248625 0 -7.9366175 3.5533688750000003 -7.9366175 7.9366175 0 4.383248625 3.5533688750000003 7.9366175 7.9366175 7.9366175Z" stroke-width="1.75"></path><path id="vector_28" fill="#6153bd" d="M186.3868825 102.08774625c4.38272625 0 7.9366175 -3.5533688750000003 7.9366175 -7.9366175 0 -4.383248625 -3.55389125 -7.9366175 -7.9366175 -7.9366175s-7.9366175 3.5533688750000003 -7.9366175 7.9366175c0 4.383248625 3.55389125 7.9366175 7.9366175 7.9366175Z" stroke-width="1.75"></path><path id="vector_29" stroke="#120071" stroke-linecap="round" stroke-linejoin="round" d="M186.3868825 102.08774625c4.38272625 0 7.9366175 -3.5533688750000003 7.9366175 -7.9366175 0 -4.383248625 -3.55389125 -7.9366175 -7.9366175 -7.9366175s-7.9366175 3.5533688750000003 -7.9366175 7.9366175c0 4.383248625 3.55389125 7.9366175 7.9366175 7.9366175Z" stroke-width="1.75"></path><path id="vector_30" fill="#6153bd" d="M206.91447875 102.00242499999999c4.38272625 0 7.9366175 -3.5533688750000003 7.9366175 -7.9366175 0 -4.383248625 -3.55389125 -7.9366175 -7.9366175 -7.9366175s-7.9366175 3.5533688750000003 -7.9366175 7.9366175c0 4.383248625 3.55389125 7.9366175 7.9366175 7.9366175Z" stroke-width="1.75"></path><path id="vector_31" stroke="#120071" stroke-linecap="round" stroke-linejoin="round" d="M206.91447875 102.00242499999999c4.38272625 0 7.9366175 -3.5533688750000003 7.9366175 -7.9366175 0 -4.383248625 -3.55389125 -7.9366175 -7.9366175 -7.9366175s-7.9366175 3.5533688750000003 -7.9366175 7.9366175c0 4.383248625 3.55389125 7.9366175 7.9366175 7.9366175Z" stroke-width="1.75"></path><path id="vector_32" stroke="#120071" stroke-linecap="round" stroke-linejoin="round" d="M227.62838875 102.08774625c4.38272625 0 7.9366175 -3.5533688750000003 7.9366175 -7.9366175 0 -4.383248625 -3.55389125 -7.9366175 -7.9366175 -7.9366175s-7.9366175 3.5533688750000003 -7.9366175 7.9366175c0 4.383248625 3.55389125 7.9366175 7.9366175 7.9366175Z" stroke-width="1.75"></path><path id="vector_33" stroke="#120071" stroke-linecap="round" stroke-linejoin="round" d="M248.82810749999996 102.00242499999999c4.38272625 0 7.9366175 -3.5533688750000003 7.9366175 -7.9366175 0 -4.383248625 -3.55389125 -7.9366175 -7.9366175 -7.9366175s-7.9366175 3.5533688750000003 -7.9366175 7.9366175c0 4.383248625 3.55389125 7.9366175 7.9366175 7.9366175Z" stroke-width="1.75"></path><path id="vector_34" stroke="#120071" stroke-linecap="round" stroke-linejoin="round" d="M118.34579749999999 188.4206625c-4.44262525 0 -8.785476874999999 1.31812625 -12.479364625 3.7854775 -3.6937136250000004 2.4690925 -6.5728705 5.975969999999999 -8.272852875 10.080096249999999 -1.7001565 4.1058675000000004 -2.145045875 8.62092875 -1.278251625 12.979277499999998 0.866620125 4.3566075 3.005919875 8.35974125 6.147309 11.50095625 3.141389125 3.141215 7.143826374999999 5.27947 11.50095625 6.1466125 4.357304 0.8671424999999999 8.87375825 0.4213825 12.978058625 -1.2780775 4.1044745 -1.69946 7.612570875 -4.5794875 10.080792749999999 -8.27267875 2.4680477499999998 -3.6949324999999997 3.7854775 -8.037609999999999 3.7854775 -12.47953875 0 -5.956816249999999 -2.366532875 -11.669857499999999 -6.5789648750000005 -15.883682499999999 -4.212432 -4.21208375 -9.9258215 -6.5784424999999995 -15.883160125 -6.5784424999999995Z" stroke-width="1.75"></path><path id="vector_35" stroke="#120071" stroke-linecap="round" stroke-linejoin="round" d="M113.13771874999999 210.87756375h10.41441625" stroke-width="1.75"></path><path id="vector_36" stroke="#120071" stroke-linecap="round" stroke-linejoin="round" d="M118.34579749999999 216.0856425v-10.4161575" stroke-width="1.75"></path><path id="vector_37" stroke="#120071" stroke-linecap="round" stroke-linejoin="round" d="M165.7565525 204.30260375c4.383248625 0 7.9366175 -3.55389125 7.9366175 -7.9366175s-3.5533688750000003 -7.9366175 -7.9366175 -7.9366175c-4.383248625 0 -7.9366175 3.55389125 -7.9366175 7.9366175s3.5533688750000003 7.9366175 7.9366175 7.9366175Z" stroke-width="1.75"></path><path id="vector_38" stroke="#120071" stroke-linecap="round" stroke-linejoin="round" d="M186.3868825 204.30260375c4.38272625 0 7.9366175 -3.55389125 7.9366175 -7.9366175s-3.55389125 -7.9366175 -7.9366175 -7.9366175 -7.9366175 3.55389125 -7.9366175 7.9366175 3.55389125 7.9366175 7.9366175 7.9366175Z" stroke-width="1.75"></path><path id="vector_39" stroke="#120071" stroke-linecap="round" stroke-linejoin="round" d="M206.91447875 188.34578875c-1.56886625 0 -3.10464875 0.46491375 -4.408845 1.33728 -1.3059375 0.87236625 -2.3228275000000003 2.1121362500000003 -2.92355875 3.5625974999999994 -0.6007312499999999 1.4504612499999998 -0.75744375 3.04544625 -0.45098375 4.58471125 0.30471875 1.5392649999999999 1.0621625 2.9549012500000003 2.1713387500000003 4.0640775 1.10917625 1.10917625 2.5248125 1.8666200000000002 4.0640775 2.1713387500000003 1.5392649999999999 0.30645999999999995 3.13425 0.14974749999999998 4.58471125 -0.45098375s2.6902312499999996 -1.61762125 3.5625974999999994 -2.92355875c0.87236625 -1.30419625 1.33728 -2.8399787499999998 1.33728 -4.408845 0 -2.10517125 -0.8375412499999999 -4.123279999999999 -2.32456875 -5.61204875 -1.48876875 -1.4870275 -3.5068774999999994 -2.32456875 -5.61204875 -2.32456875Z" stroke-width="1.75"></path><path id="vector_40" stroke="#120071" stroke-linecap="round" stroke-linejoin="round" d="M227.62838875 204.30260375c4.38272625 0 7.9366175 -3.55389125 7.9366175 -7.9366175s-3.55389125 -7.9366175 -7.9366175 -7.9366175 -7.9366175 3.55389125 -7.9366175 7.9366175 3.55389125 7.9366175 7.9366175 7.9366175Z" stroke-width="1.75"></path><path id="vector_41" stroke="#120071" stroke-linecap="round" stroke-linejoin="round" d="M248.824625 188.34578875c-1.56886625 0 -3.10464875 0.46491375 -4.408845 1.33728 -1.3059375 0.87236625 -2.3228275000000003 2.1121362500000003 -2.92355875 3.5625974999999994 -0.6007312499999999 1.4504612499999998 -0.75744375 3.04544625 -0.45098375 4.58471125 0.30471875 1.5392649999999999 1.0621625 2.9549012500000003 2.1713387500000003 4.0640775 1.10917625 1.10917625 2.5248125 1.8666200000000002 4.0640775 2.1713387500000003 1.5392649999999999 0.30645999999999995 3.13425 0.14974749999999998 4.58471125 -0.45098375s2.6902312499999996 -1.61762125 3.5625974999999994 -2.92355875c0.87236625 -1.30419625 1.33728 -2.8399787499999998 1.33728 -4.408845 0 -2.10517125 -0.8358 -4.123279999999999 -2.32456875 -5.61204875s-3.5068774999999994 -2.32456875 -5.61204875 -2.32456875Z" stroke-width="1.75"></path><path id="vector_42" stroke="#120071" stroke-linecap="round" stroke-linejoin="round" d="M160.54847375 196.36598625h10.4161575" stroke-width="1.75"></path><path id="vector_43" stroke="#120071" stroke-linecap="round" stroke-linejoin="round" d="M165.7565525 201.574065v-10.41441625" stroke-width="1.75"></path><path id="vector_44" stroke="#120071" stroke-linecap="round" stroke-linejoin="round" d="M181.17880375 196.36598625h10.4161575" stroke-width="1.75"></path><path id="vector_45" stroke="#120071" stroke-linecap="round" stroke-linejoin="round" d="M186.3868825 201.574065v-10.41441625" stroke-width="1.75"></path><path id="vector_46" stroke="#120071" stroke-linecap="round" stroke-linejoin="round" d="M201.7064 196.36598625h10.41441625" stroke-width="1.75"></path><path id="vector_47" stroke="#120071" stroke-linecap="round" stroke-linejoin="round" d="M206.91447875 201.574065v-10.41441625" stroke-width="1.75"></path><path id="vector_48" stroke="#120071" stroke-linecap="round" stroke-linejoin="round" d="M222.42031 196.36598625h10.41441625" stroke-width="1.75"></path><path id="vector_49" stroke="#120071" stroke-linecap="round" stroke-linejoin="round" d="M227.62838875 201.574065v-10.41441625" stroke-width="1.75"></path><path id="vector_50" stroke="#120071" stroke-linecap="round" stroke-linejoin="round" d="M243.62002875 196.36598625h10.4161575" stroke-width="1.75"></path><path id="vector_51" stroke="#120071" stroke-linecap="round" stroke-linejoin="round" d="M248.82810749999996 201.574065v-10.41441625" stroke-width="1.75"></path><path id="vector_52" stroke="#120071" stroke-linecap="round" stroke-linejoin="round" d="M156.96846375 113.99093125v38.68361h97.4925875l11.2171325 12.78599875V113.99093125H156.96846375Z" stroke-width="1.75"></path><path id="vector_53" stroke="#120071" stroke-linecap="round" stroke-linejoin="round" d="M173.69316999999998 129.0579675h75.71129125" stroke-width="1.75"></path><path id="vector_54" stroke="#120071" stroke-linecap="round" stroke-linejoin="round" d="M173.69316999999998 138.42240999999999h75.71129125" stroke-width="1.75"></path></g><g id="rate"><path id="vector_55" stroke="#120071" stroke-linecap="round" stroke-linejoin="round" d="M156.96846375 217.1721825v96.66549375h97.4925875l11.2171325 12.78599875v-109.45149249999999H156.96846375Z" stroke-width="1.75"></path><path id="vector_56" fill="#6153bd" d="m212.12081625 224.62647374999997 13.057633749999999 26.45829375 29.199021249999998 4.2416849999999995 -21.1283275 20.595505 4.98694 29.078874999999996 -26.115267499999998 -13.72975625 -26.115267499999998 13.72975625 4.98868125 -29.078874999999996 -21.1283275 -20.595505 29.19728 -4.2416849999999995 13.057633749999999 -26.45829375Z" stroke-width="1.75"></path><path id="vector_57" stroke="#120071" stroke-linecap="round" stroke-linejoin="round" d="m212.12081625 224.62647374999997 13.057633749999999 26.45829375 29.199021249999998 4.2416849999999995 -21.1283275 20.595505 4.98694 29.078874999999996 -26.115267499999998 -13.72975625 -26.115267499999998 13.72975625 4.98868125 -29.078874999999996 -21.1283275 -20.595505 29.19728 -4.2416849999999995 13.057633749999999 -26.45829375Z" stroke-width="1.75"></path><path id="vector_58" stroke="#120071" stroke-linecap="round" stroke-linejoin="round" d="m325.0600325 294.73094000000003 11.97109375 -5.0287299999999995 -32.059895 -32.059895v45.52846374999999l12.8156 -5.383945v-10.330836249999999l7.273201249999999 7.2749425Z" stroke-width="1.75"></path></g></g></svg>